<svg width="356" height="520" viewBox="0 0 356 520" fill="none" xmlns="http://www.w3.org/2000/svg">
<g filter="url(#filter0_d_946_2645)">
<path d="M351.791 210.713V301.631C351.791 337.406 347.576 368.509 339.145 394.941C330.941 421.374 319.092 443.249 303.598 460.566C288.331 477.884 270.102 490.758 248.91 499.189C227.719 507.62 204.363 511.836 178.842 511.836C158.334 511.836 139.193 509.215 121.42 503.975C103.646 498.506 87.582 490.303 73.2266 479.365C59.099 468.2 46.9082 454.3 36.6543 437.666C26.4004 421.032 18.5391 401.436 13.0703 378.877C7.60156 356.09 4.86719 330.342 4.86719 301.631V210.713C4.86719 174.71 8.96875 143.607 17.1719 117.402C25.6029 90.9701 37.5658 69.0951 53.0605 51.7773C68.5553 34.4596 86.8984 21.5853 108.09 13.1543C129.281 4.72331 152.637 0.507812 178.158 0.507812C198.666 0.507812 217.693 3.24219 235.238 8.71094C253.012 13.9518 269.076 22.1549 283.432 33.3203C297.787 44.2578 309.978 58.0436 320.004 74.6777C330.258 91.3118 338.119 111.022 343.588 133.809C349.057 156.367 351.791 182.002 351.791 210.713ZM236.605 315.645V196.016C236.605 180.065 235.694 166.165 233.871 154.316C232.276 142.467 229.77 132.441 226.352 124.238C223.161 116.035 219.174 109.427 214.389 104.414C209.604 99.1732 204.135 95.4134 197.982 93.1348C192.058 90.6283 185.45 89.375 178.158 89.375C169.044 89.375 160.84 91.3118 153.549 95.1855C146.485 98.8314 140.447 104.756 135.434 112.959C130.421 121.162 126.547 132.1 123.812 145.771C121.306 159.443 120.053 176.191 120.053 196.016V315.645C120.053 331.823 120.85 345.951 122.445 358.027C124.268 369.876 126.775 380.016 129.965 388.447C133.383 396.65 137.484 403.372 142.27 408.613C147.055 413.626 152.523 417.272 158.676 419.551C164.828 421.829 171.55 422.969 178.842 422.969C187.729 422.969 195.704 421.146 202.768 417.5C209.831 413.854 215.87 407.93 220.883 399.727C226.124 391.296 229.997 380.244 232.504 366.572C235.238 352.673 236.605 335.697 236.605 315.645Z" fill="url(#paint0_linear_946_2645)" shape-rendering="crispEdges"/>
</g>
<defs>
<filter id="filter0_d_946_2645" x="0.867188" y="0.507812" width="354.922" height="519.328" filterUnits="userSpaceOnUse" color-interpolation-filters="sRGB">
<feFlood flood-opacity="0" result="BackgroundImageFix"/>
<feColorMatrix in="SourceAlpha" type="matrix" values="0 0 0 0 0 0 0 0 0 0 0 0 0 0 0 0 0 0 127 0" result="hardAlpha"/>
<feOffset dy="4"/>
<feGaussianBlur stdDeviation="2"/>
<feComposite in2="hardAlpha" operator="out"/>
<feColorMatrix type="matrix" values="0 0 0 0 0 0 0 0 0 0 0 0 0 0 0 0 0 0 0.25 0"/>
<feBlend mode="normal" in2="BackgroundImageFix" result="effect1_dropShadow_946_2645"/>
<feBlend mode="normal" in="SourceGraphic" in2="effect1_dropShadow_946_2645" result="shape"/>
</filter>
<linearGradient id="paint0_linear_946_2645" x1="178.5" y1="-42" x2="178.5" y2="814.663" gradientUnits="userSpaceOnUse">
<stop stop-color="white" stop-opacity="0.35"/>
<stop offset="1" stop-color="white" stop-opacity="0"/>
</linearGradient>
</defs>
</svg>
