<svg width="367" height="513" viewBox="0 0 367 513" fill="none" xmlns="http://www.w3.org/2000/svg">
<g filter="url(#filter0_d_946_2645)">
<path d="M362.5 416.133V505H15.2344V429.805L175.195 261.641C189.323 245.462 200.716 230.993 209.375 218.232C218.034 205.244 224.3 193.509 228.174 183.027C232.275 172.546 234.326 163.089 234.326 154.658C234.326 140.303 232.161 128.34 227.832 118.77C223.73 108.971 217.578 101.566 209.375 96.5527C201.4 91.5397 191.488 89.0332 179.639 89.0332C167.79 89.0332 157.422 92.4512 148.535 99.2871C139.648 106.123 132.699 115.465 127.686 127.314C122.9 139.163 120.508 152.493 120.508 167.305H4.98047C4.98047 136.771 12.3861 108.857 27.1973 83.5645C42.2363 58.2715 63.0859 38.1055 89.7461 23.0664C116.406 7.79948 147.282 0.166016 182.373 0.166016C219.059 0.166016 249.821 5.86263 274.658 17.2559C299.495 28.6491 318.18 45.1693 330.713 66.8164C343.473 88.2357 349.854 114.098 349.854 144.404C349.854 161.722 347.119 178.356 341.65 194.307C336.182 210.257 328.32 226.094 318.066 241.816C307.812 257.311 295.28 273.262 280.469 289.668C265.885 306.074 249.251 323.506 230.566 341.963L166.309 416.133H362.5Z" fill="url(#paint0_linear_946_2645)" shape-rendering="crispEdges"/>
</g>
<defs>
<filter id="filter0_d_946_2645" x="0.984375" y="0.166016" width="365.516" height="512.834" filterUnits="userSpaceOnUse" color-interpolation-filters="sRGB">
<feFlood flood-opacity="0" result="BackgroundImageFix"/>
<feColorMatrix in="SourceAlpha" type="matrix" values="0 0 0 0 0 0 0 0 0 0 0 0 0 0 0 0 0 0 127 0" result="hardAlpha"/>
<feOffset dy="4"/>
<feGaussianBlur stdDeviation="2"/>
<feComposite in2="hardAlpha" operator="out"/>
<feColorMatrix type="matrix" values="0 0 0 0 0 0 0 0 0 0 0 0 0 0 0 0 0 0 0.25 0"/>
<feBlend mode="normal" in2="BackgroundImageFix" result="effect1_dropShadow_946_2645"/>
<feBlend mode="normal" in="SourceGraphic" in2="effect1_dropShadow_946_2645" result="shape"/>
</filter>
<linearGradient id="paint0_linear_946_2645" x1="187.5" y1="-42" x2="187.5" y2="814.663" gradientUnits="userSpaceOnUse">
<stop stop-color="white" stop-opacity="0.35"/>
<stop offset="1" stop-color="white" stop-opacity="0"/>
</linearGradient>
</defs>
</svg>
