<svg width="600" height="400" viewBox="0 0 600 400" fill="none" xmlns="http://www.w3.org/2000/svg">
<g filter="url(#filter0_d_946_2647)">
<path d="M278.067 318.08V386H12.6564V328.529L134.912 200.004C145.71 187.639 154.418 176.58 161.035 166.828C167.653 156.901 172.442 147.932 175.403 139.921C178.538 131.91 180.105 124.682 180.105 118.239C180.105 107.267 178.451 98.124 175.142 90.8096C172.007 83.321 167.305 77.661 161.035 73.8296C154.94 69.9982 147.364 68.0825 138.308 68.0825C129.252 68.0825 121.328 70.6948 114.536 75.9194C107.744 81.144 102.433 88.2843 98.6013 97.3403C94.944 106.396 93.1154 116.584 93.1154 127.904H4.81952C4.81952 104.568 10.4795 83.2339 21.7995 63.9028C33.2936 44.5718 49.2287 29.1592 69.6047 17.665C89.9807 5.99674 113.578 0.162598 140.398 0.162598C168.437 0.162598 191.948 4.51644 210.93 13.2241C229.913 21.9318 244.194 34.5579 253.772 51.1025C263.525 67.473 268.401 87.2394 268.401 110.402C268.401 123.638 266.311 136.351 262.132 148.542C257.952 160.732 251.944 172.836 244.107 184.853C236.27 196.695 226.691 208.886 215.371 221.425C204.225 233.964 191.512 247.287 177.232 261.393L128.12 318.08H278.067ZM595.127 161.081V230.568C595.127 257.91 591.905 281.682 585.462 301.884C579.192 322.086 570.136 338.804 558.294 352.04C546.625 365.276 532.693 375.115 516.497 381.559C500.301 388.003 482.45 391.225 462.945 391.225C447.271 391.225 432.642 389.222 419.058 385.216C405.474 381.037 393.196 374.767 382.224 366.408C371.427 357.874 362.11 347.251 354.273 334.538C346.436 321.824 340.428 306.847 336.248 289.606C332.068 272.191 329.978 252.511 329.978 230.568V161.081C329.978 133.564 333.113 109.792 339.383 89.7646C345.826 69.5628 354.969 52.8441 366.812 39.6084C378.654 26.3727 392.674 16.533 408.87 10.0894C425.066 3.64567 442.917 0.423828 462.422 0.423828C478.096 0.423828 492.638 2.51367 506.048 6.69336C519.632 10.6989 531.909 16.9684 542.881 25.502C553.853 33.8613 563.17 44.3976 570.833 57.1108C578.67 69.8241 584.678 84.8883 588.858 102.304C593.037 119.545 595.127 139.137 595.127 161.081ZM507.093 241.278V149.848C507.093 137.657 506.396 127.034 505.003 117.978C503.784 108.922 501.868 101.259 499.256 94.9893C496.817 88.7197 493.77 83.6693 490.113 79.8379C486.455 75.8324 482.276 72.9588 477.574 71.2173C473.046 69.3016 467.995 68.3438 462.422 68.3438C455.456 68.3438 449.186 69.8241 443.614 72.7847C438.215 75.5711 433.6 80.0991 429.768 86.3687C425.937 92.6382 422.976 100.998 420.887 111.447C418.971 121.896 418.013 134.696 418.013 149.848V241.278C418.013 253.643 418.623 264.441 419.842 273.671C421.235 282.727 423.151 290.477 425.589 296.92C428.201 303.19 431.336 308.327 434.993 312.333C438.65 316.164 442.83 318.951 447.532 320.692C452.234 322.434 457.372 323.305 462.945 323.305C469.737 323.305 475.832 321.911 481.231 319.125C486.63 316.339 491.245 311.811 495.076 305.541C499.081 299.097 502.042 290.651 503.958 280.202C506.048 269.578 507.093 256.604 507.093 241.278Z" fill="url(#paint0_linear_946_2647)" shape-rendering="crispEdges"/>
</g>
<defs>
<filter id="filter0_d_946_2647" x="0.820312" y="0.162598" width="598.305" height="399.062" filterUnits="userSpaceOnUse" color-interpolation-filters="sRGB">
<feFlood flood-opacity="0" result="BackgroundImageFix"/>
<feColorMatrix in="SourceAlpha" type="matrix" values="0 0 0 0 0 0 0 0 0 0 0 0 0 0 0 0 0 0 127 0" result="hardAlpha"/>
<feOffset dy="4"/>
<feGaussianBlur stdDeviation="2"/>
<feComposite in2="hardAlpha" operator="out"/>
<feColorMatrix type="matrix" values="0 0 0 0 0 0 0 0 0 0 0 0 0 0 0 0 0 0 0.25 0"/>
<feBlend mode="normal" in2="BackgroundImageFix" result="effect1_dropShadow_946_2647"/>
<feBlend mode="normal" in="SourceGraphic" in2="effect1_dropShadow_946_2647" result="shape"/>
</filter>
<linearGradient id="paint0_linear_946_2647" x1="303.5" y1="-132" x2="303.5" y2="800.469" gradientUnits="userSpaceOnUse">
<stop stop-color="white" stop-opacity="0.35"/>
<stop offset="1" stop-color="white" stop-opacity="0"/>
</linearGradient>
</defs>
</svg>
