<svg width="782" height="520" viewBox="0 0 782 520" fill="none" xmlns="http://www.w3.org/2000/svg">
<g filter="url(#filter0_d_946_2647)">
<path d="M362.223 416.133V505H14.957V429.805L174.918 261.641C189.046 245.462 200.439 230.993 209.098 218.232C217.757 205.244 224.023 193.509 227.896 183.027C231.998 172.546 234.049 163.089 234.049 154.658C234.049 140.303 231.884 128.34 227.555 118.77C223.453 108.971 217.301 101.566 209.098 96.5527C201.122 91.5397 191.21 89.0332 179.361 89.0332C167.512 89.0332 157.145 92.4512 148.258 99.2871C139.371 106.123 132.421 115.465 127.408 127.314C122.623 139.163 120.23 152.493 120.23 167.305H4.70312C4.70312 136.771 12.1087 108.857 26.9199 83.5645C41.959 58.2715 62.8086 38.1055 89.4688 23.0664C116.129 7.79948 147.005 0.166016 182.096 0.166016C218.782 0.166016 249.544 5.86263 274.381 17.2559C299.218 28.6491 317.903 45.1693 330.436 66.8164C343.196 88.2357 349.576 114.098 349.576 144.404C349.576 161.722 346.842 178.356 341.373 194.307C335.904 210.257 328.043 226.094 317.789 241.816C307.535 257.311 295.003 273.262 280.191 289.668C265.608 306.074 248.974 323.506 230.289 341.963L166.031 416.133H362.223ZM777.068 210.713V301.631C777.068 337.406 772.853 368.509 764.422 394.941C756.219 421.374 744.37 443.249 728.875 460.566C713.608 477.884 695.379 490.758 674.188 499.189C652.996 507.62 629.64 511.836 604.119 511.836C583.611 511.836 564.471 509.215 546.697 503.975C528.924 498.506 512.859 490.303 498.504 479.365C484.376 468.2 472.186 454.3 461.932 437.666C451.678 421.032 443.816 401.436 438.348 378.877C432.879 356.09 430.145 330.342 430.145 301.631V210.713C430.145 174.71 434.246 143.607 442.449 117.402C450.88 90.9701 462.843 69.0951 478.338 51.7773C493.833 34.4596 512.176 21.5853 533.367 13.1543C554.559 4.72331 577.915 0.507812 603.436 0.507812C623.943 0.507812 642.97 3.24219 660.516 8.71094C678.289 13.9518 694.354 22.1549 708.709 33.3203C723.064 44.2578 735.255 58.0436 745.281 74.6777C755.535 91.3118 763.396 111.022 768.865 133.809C774.334 156.367 777.068 182.002 777.068 210.713ZM661.883 315.645V196.016C661.883 180.065 660.971 166.165 659.148 154.316C657.553 142.467 655.047 132.441 651.629 124.238C648.439 116.035 644.451 109.427 639.666 104.414C634.881 99.1732 629.412 95.4134 623.26 93.1348C617.335 90.6283 610.727 89.375 603.436 89.375C594.321 89.375 586.118 91.3118 578.826 95.1855C571.762 98.8314 565.724 104.756 560.711 112.959C555.698 121.162 551.824 132.1 549.09 145.771C546.583 159.443 545.33 176.191 545.33 196.016V315.645C545.33 331.823 546.128 345.951 547.723 358.027C549.546 369.876 552.052 380.016 555.242 388.447C558.66 396.65 562.762 403.372 567.547 408.613C572.332 413.626 577.801 417.272 583.953 419.551C590.105 421.829 596.827 422.969 604.119 422.969C613.006 422.969 620.981 421.146 628.045 417.5C635.109 413.854 641.147 407.93 646.16 399.727C651.401 391.296 655.275 380.244 657.781 366.572C660.516 352.673 661.883 335.697 661.883 315.645Z" fill="url(#paint0_linear_946_2647)" shape-rendering="crispEdges"/>
</g>
<defs>
<filter id="filter0_d_946_2647" x="0.703125" y="0.166016" width="780.367" height="519.67" filterUnits="userSpaceOnUse" color-interpolation-filters="sRGB">
<feFlood flood-opacity="0" result="BackgroundImageFix"/>
<feColorMatrix in="SourceAlpha" type="matrix" values="0 0 0 0 0 0 0 0 0 0 0 0 0 0 0 0 0 0 127 0" result="hardAlpha"/>
<feOffset dy="4"/>
<feGaussianBlur stdDeviation="2"/>
<feComposite in2="hardAlpha" operator="out"/>
<feColorMatrix type="matrix" values="0 0 0 0 0 0 0 0 0 0 0 0 0 0 0 0 0 0 0.25 0"/>
<feBlend mode="normal" in2="BackgroundImageFix" result="effect1_dropShadow_946_2647"/>
<feBlend mode="normal" in="SourceGraphic" in2="effect1_dropShadow_946_2647" result="shape"/>
</filter>
<linearGradient id="paint0_linear_946_2647" x1="395.5" y1="-47" x2="395.5" y2="822.934" gradientUnits="userSpaceOnUse">
<stop stop-color="white" stop-opacity="0.35"/>
<stop offset="1" stop-color="white" stop-opacity="0"/>
</linearGradient>
</defs>
</svg>
