<svg width="395" height="265" viewBox="0 0 395 265" fill="none" xmlns="http://www.w3.org/2000/svg">
<g filter="url(#filter0_d_946_2647)">
<path d="M182.861 208.566V253H9.22852V215.402L89.209 131.32C96.2728 123.231 101.969 115.996 106.299 109.616C110.628 103.122 113.761 97.2546 115.698 92.0137C117.749 86.7728 118.774 82.0446 118.774 77.8291C118.774 70.6514 117.692 64.6699 115.527 59.8848C113.477 54.9857 110.4 51.2829 106.299 48.7764C102.311 46.2699 97.3551 45.0166 91.4307 45.0166C85.5062 45.0166 80.3223 46.7256 75.8789 50.1436C71.4355 53.5615 67.9606 58.2327 65.4541 64.1572C63.0615 70.0817 61.8652 76.7467 61.8652 84.1523H4.10156C4.10156 68.8854 7.80436 54.9287 15.21 42.2822C22.7295 29.6357 33.1543 19.5527 46.4844 12.0332C59.8145 4.39974 75.2523 0.583008 92.7979 0.583008C111.141 0.583008 126.522 3.43132 138.94 9.12793C151.359 14.8245 160.701 23.0846 166.968 33.9082C173.348 44.6178 176.538 57.5492 176.538 72.7021C176.538 81.361 175.171 89.6781 172.437 97.6533C169.702 105.629 165.771 113.547 160.645 121.408C155.518 129.156 149.251 137.131 141.846 145.334C134.554 153.537 126.237 162.253 116.895 171.481L84.7656 208.566H182.861ZM390.284 105.856V151.315C390.284 169.203 388.176 184.755 383.961 197.971C379.859 211.187 373.935 222.124 366.188 230.783C358.554 239.442 349.439 245.879 338.844 250.095C328.248 254.31 316.57 256.418 303.81 256.418C293.556 256.418 283.985 255.108 275.099 252.487C266.212 249.753 258.18 245.651 251.002 240.183C243.938 234.6 237.843 227.65 232.716 219.333C227.589 211.016 223.658 201.218 220.924 189.938C218.189 178.545 216.822 165.671 216.822 151.315V105.856C216.822 87.8551 218.873 72.3034 222.975 59.2012C227.19 45.985 233.172 35.0475 240.919 26.3887C248.666 17.7298 257.838 11.2926 268.434 7.07715C279.029 2.86165 290.707 0.753906 303.468 0.753906C313.722 0.753906 323.235 2.12109 332.008 4.85547C340.895 7.47591 348.927 11.5775 356.104 17.1602C363.282 22.6289 369.378 29.5218 374.391 37.8389C379.518 46.1559 383.448 56.0111 386.183 67.4043C388.917 78.6836 390.284 91.501 390.284 105.856ZM332.691 158.322V98.5078C332.691 90.5326 332.236 83.5827 331.324 77.6582C330.527 71.7337 329.273 66.7207 327.564 62.6191C325.969 58.5176 323.976 55.2135 321.583 52.707C319.19 50.0866 316.456 48.2067 313.38 47.0674C310.418 45.8141 307.114 45.1875 303.468 45.1875C298.91 45.1875 294.809 46.1559 291.163 48.0928C287.631 49.9157 284.612 52.8779 282.105 56.9795C279.599 61.0811 277.662 66.5498 276.295 73.3857C275.042 80.2217 274.415 88.5957 274.415 98.5078V158.322C274.415 166.411 274.814 173.475 275.611 179.514C276.523 185.438 277.776 190.508 279.371 194.724C281.08 198.825 283.131 202.186 285.523 204.807C287.916 207.313 290.65 209.136 293.727 210.275C296.803 211.415 300.164 211.984 303.81 211.984C308.253 211.984 312.241 211.073 315.772 209.25C319.304 207.427 322.324 204.465 324.83 200.363C327.451 196.148 329.387 190.622 330.641 183.786C332.008 176.836 332.691 168.348 332.691 158.322Z" fill="url(#paint0_linear_946_2647)" shape-rendering="crispEdges"/>
</g>
<defs>
<filter id="filter0_d_946_2647" x="0.101562" y="0.583008" width="394.18" height="263.835" filterUnits="userSpaceOnUse" color-interpolation-filters="sRGB">
<feFlood flood-opacity="0" result="BackgroundImageFix"/>
<feColorMatrix in="SourceAlpha" type="matrix" values="0 0 0 0 0 0 0 0 0 0 0 0 0 0 0 0 0 0 127 0" result="hardAlpha"/>
<feOffset dy="4"/>
<feGaussianBlur stdDeviation="2"/>
<feComposite in2="hardAlpha" operator="out"/>
<feColorMatrix type="matrix" values="0 0 0 0 0 0 0 0 0 0 0 0 0 0 0 0 0 0 0.25 0"/>
<feBlend mode="normal" in2="BackgroundImageFix" result="effect1_dropShadow_946_2647"/>
<feBlend mode="normal" in="SourceGraphic" in2="effect1_dropShadow_946_2647" result="shape"/>
</filter>
<linearGradient id="paint0_linear_946_2647" x1="199.5" y1="-175" x2="199.5" y2="681.663" gradientUnits="userSpaceOnUse">
<stop stop-color="white" stop-opacity="0.35"/>
<stop offset="1" stop-color="white" stop-opacity="0"/>
</linearGradient>
</defs>
</svg>
