<svg width="356" height="520" viewBox="0 0 356 520" fill="none" xmlns="http://www.w3.org/2000/svg">
<g filter="url(#filter0_d_946_2647)">
<path d="M351.791 367.939C351.791 399.613 344.271 426.159 329.232 447.578C314.421 468.997 293.913 485.062 267.709 495.771C241.732 506.481 212.11 511.836 178.842 511.836C145.801 511.836 116.065 506.481 89.6328 495.771C63.4284 485.062 42.6927 468.997 27.4258 447.578C12.1589 426.159 4.52539 399.613 4.52539 367.939C4.52539 346.292 8.85482 326.924 17.5137 309.834C26.4004 292.516 38.7051 277.819 54.4277 265.742C70.1504 253.665 88.4935 244.437 109.457 238.057C130.648 231.676 153.549 228.486 178.158 228.486C211.426 228.486 241.163 234.183 267.367 245.576C293.572 256.742 314.193 272.692 329.232 293.428C344.271 314.163 351.791 339.001 351.791 367.939ZM235.922 358.711C235.922 345.039 233.529 333.532 228.744 324.189C223.959 314.619 217.237 307.327 208.578 302.314C199.919 297.301 189.779 294.795 178.158 294.795C166.765 294.795 156.625 297.301 147.738 302.314C139.079 307.327 132.243 314.619 127.23 324.189C122.445 333.532 120.053 345.039 120.053 358.711C120.053 371.927 122.559 383.434 127.572 393.232C132.585 402.803 139.421 410.208 148.08 415.449C156.967 420.462 167.221 422.969 178.842 422.969C190.463 422.969 200.489 420.462 208.92 415.449C217.579 410.208 224.187 402.803 228.744 393.232C233.529 383.434 235.922 371.927 235.922 358.711ZM341.537 140.303C341.537 166.279 334.587 189.066 320.688 208.662C307.016 228.031 287.875 243.184 263.266 254.121C238.884 264.831 210.743 270.186 178.842 270.186C147.169 270.186 118.913 264.831 94.0762 254.121C69.4668 243.184 50.0983 228.031 35.9707 208.662C22.071 189.066 15.1211 166.279 15.1211 140.303C15.1211 109.769 22.071 84.1341 35.9707 63.3984C50.0983 42.6628 69.4668 26.9401 94.0762 16.2305C118.686 5.52083 146.713 0.166016 178.158 0.166016C210.059 0.166016 238.314 5.52083 262.924 16.2305C287.533 26.9401 306.788 42.6628 320.688 63.3984C334.587 84.1341 341.537 109.769 341.537 140.303ZM226.352 146.455C226.352 134.606 224.529 124.466 220.883 116.035C217.237 107.376 211.882 100.768 204.818 96.2109C197.755 91.4258 188.868 89.0332 178.158 89.0332C167.904 89.0332 159.245 91.3118 152.182 95.8691C145.118 100.426 139.763 107.035 136.117 115.693C132.471 124.124 130.648 134.378 130.648 146.455C130.648 158.304 132.471 168.672 136.117 177.559C139.763 186.445 145.118 193.395 152.182 198.408C159.473 203.421 168.36 205.928 178.842 205.928C189.551 205.928 198.324 203.421 205.16 198.408C212.224 193.395 217.465 186.445 220.883 177.559C224.529 168.672 226.352 158.304 226.352 146.455Z" fill="url(#paint0_linear_946_2647)" shape-rendering="crispEdges"/>
</g>
<defs>
<filter id="filter0_d_946_2647" x="0.523438" y="0.166016" width="355.266" height="519.67" filterUnits="userSpaceOnUse" color-interpolation-filters="sRGB">
<feFlood flood-opacity="0" result="BackgroundImageFix"/>
<feColorMatrix in="SourceAlpha" type="matrix" values="0 0 0 0 0 0 0 0 0 0 0 0 0 0 0 0 0 0 127 0" result="hardAlpha"/>
<feOffset dy="4"/>
<feGaussianBlur stdDeviation="2"/>
<feComposite in2="hardAlpha" operator="out"/>
<feColorMatrix type="matrix" values="0 0 0 0 0 0 0 0 0 0 0 0 0 0 0 0 0 0 0.25 0"/>
<feBlend mode="normal" in2="BackgroundImageFix" result="effect1_dropShadow_946_2647"/>
<feBlend mode="normal" in="SourceGraphic" in2="effect1_dropShadow_946_2647" result="shape"/>
</filter>
<linearGradient id="paint0_linear_946_2647" x1="178.5" y1="-42" x2="178.5" y2="814.663" gradientUnits="userSpaceOnUse">
<stop stop-color="white" stop-opacity="0.35"/>
<stop offset="1" stop-color="white" stop-opacity="0"/>
</linearGradient>
</defs>
</svg>
