<svg width="357" height="520" viewBox="0 0 357 520" fill="none" xmlns="http://www.w3.org/2000/svg">
<g filter="url(#filter0_d_946_2645)">
<path d="M81.0371 419.551H87.873C110.66 419.551 131.167 417.044 149.396 412.031C167.626 407.018 183.234 399.271 196.223 388.789C209.211 378.079 219.123 364.294 225.959 347.432C233.023 330.342 236.555 309.72 236.555 285.566V182.686C236.555 166.735 235.188 152.949 232.453 141.328C229.719 129.479 225.731 119.681 220.49 111.934C215.249 104.186 208.983 98.4896 201.691 94.8438C194.4 90.9701 186.197 89.0332 177.082 89.0332C167.967 89.0332 159.878 91.6536 152.814 96.8945C145.979 101.908 140.054 108.743 135.041 117.402C130.256 125.833 126.61 135.404 124.104 146.113C121.597 156.595 120.344 167.191 120.344 177.9C120.344 189.977 121.597 201.257 124.104 211.738C126.838 221.992 130.712 230.993 135.725 238.74C140.965 246.26 147.46 252.184 155.207 256.514C163.182 260.843 172.411 263.008 182.893 263.008C193.374 263.008 202.375 261.185 209.895 257.539C217.642 253.665 224.022 248.652 229.035 242.5C234.048 236.12 237.694 229.284 239.973 221.992C242.479 214.701 243.618 207.523 243.391 200.459L276.887 226.777C276.887 241.361 273.583 255.716 266.975 269.844C260.367 283.971 251.252 296.846 239.631 308.467C228.01 319.86 214.566 328.975 199.299 335.811C184.26 342.646 168.309 346.064 151.447 346.064C128.889 346.064 108.495 342.077 90.2656 334.102C72.2643 326.126 56.8835 314.733 44.123 299.922C31.3626 285.111 21.5645 267.451 14.7285 246.943C8.12044 226.208 4.81641 203.193 4.81641 177.9C4.81641 153.519 9.0319 130.618 17.4629 109.199C25.8939 87.7799 37.8568 68.9811 53.3516 52.8027C68.8464 36.3965 87.1895 23.5221 108.381 14.1797C129.572 4.83724 152.814 0.166016 178.107 0.166016C202.033 0.166016 224.478 4.72331 245.441 13.8379C266.405 22.7246 284.862 35.8268 300.812 53.1445C316.763 70.4622 329.296 91.7676 338.41 117.061C347.525 142.354 352.082 171.292 352.082 203.877V243.525C352.082 278.844 347.753 310.745 339.094 339.229C330.435 367.712 318.13 392.777 302.18 414.424C286.229 435.843 267.316 453.844 245.441 468.428C223.794 482.783 199.755 493.607 173.322 500.898C147.118 508.19 119.318 511.836 89.9238 511.836H81.0371V419.551Z" fill="url(#paint0_linear_946_2645)" shape-rendering="crispEdges"/>
</g>
<defs>
<filter id="filter0_d_946_2645" x="0.8125" y="0.166016" width="355.266" height="519.67" filterUnits="userSpaceOnUse" color-interpolation-filters="sRGB">
<feFlood flood-opacity="0" result="BackgroundImageFix"/>
<feColorMatrix in="SourceAlpha" type="matrix" values="0 0 0 0 0 0 0 0 0 0 0 0 0 0 0 0 0 0 127 0" result="hardAlpha"/>
<feOffset dy="4"/>
<feGaussianBlur stdDeviation="2"/>
<feComposite in2="hardAlpha" operator="out"/>
<feColorMatrix type="matrix" values="0 0 0 0 0 0 0 0 0 0 0 0 0 0 0 0 0 0 0.25 0"/>
<feBlend mode="normal" in2="BackgroundImageFix" result="effect1_dropShadow_946_2645"/>
<feBlend mode="normal" in="SourceGraphic" in2="effect1_dropShadow_946_2645" result="shape"/>
</filter>
<linearGradient id="paint0_linear_946_2645" x1="180.5" y1="-42" x2="180.5" y2="814.663" gradientUnits="userSpaceOnUse">
<stop stop-color="white" stop-opacity="0.35"/>
<stop offset="1" stop-color="white" stop-opacity="0"/>
</linearGradient>
</defs>
</svg>
