<svg id="visual" viewBox="0 0 900 600" width="900" height="600" xmlns="http://www.w3.org/2000/svg" xmlns:xlink="http://www.w3.org/1999/xlink" version="1.1"><g fill="#6016FC"><circle r="75" cx="540" cy="367"></circle><circle r="38" cx="870" cy="302"></circle><circle r="40" cx="284" cy="545"></circle><circle r="40" cx="122" cy="226"></circle><circle r="49" cx="859" cy="577"></circle><circle r="46" cx="563" cy="190"></circle><circle r="38" cx="725" cy="491"></circle><circle r="40" cx="240" cy="17"></circle><circle r="40" cx="28" cy="504"></circle><circle r="40" cx="717" cy="184"></circle><circle r="40" cx="525" cy="26"></circle><circle r="59" cx="337" cy="275"></circle><circle r="47" cx="402" cy="443"></circle><circle r="52" cx="872" cy="97"></circle><circle r="42" cx="681" cy="8"></circle><circle r="49" cx="38" cy="93"></circle><circle r="69" cx="576" cy="538"></circle><circle r="42" cx="396" cy="111"></circle><circle r="55" cx="175" cy="385"></circle><circle r="67" cx="714" cy="336"></circle><circle r="44" cx="22" cy="346"></circle><circle r="58" cx="430" cy="598"></circle></g></svg>